<svg xmlns="http://www.w3.org/2000/svg" width="15.944" height="15.331" viewBox="0 0 15.944 15.331">
  <path id="Icon_ionic-ios-heart-empty" data-name="Icon ionic-ios-heart-empty" d="M15.026,3.938h-.038a4.361,4.361,0,0,0-3.641,1.993A4.361,4.361,0,0,0,7.706,3.938H7.668A4.333,4.333,0,0,0,3.375,8.268a9.33,9.33,0,0,0,1.832,5.086,32.1,32.1,0,0,0,6.14,5.914,32.106,32.106,0,0,0,6.14-5.914,9.33,9.33,0,0,0,1.832-5.086A4.333,4.333,0,0,0,15.026,3.938Zm1.594,8.785a29.4,29.4,0,0,1-5.274,5.2,29.44,29.44,0,0,1-5.274-5.2,8.268,8.268,0,0,1-1.625-4.45A3.252,3.252,0,0,1,7.675,5.014H7.71a3.213,3.213,0,0,1,1.575.414A3.349,3.349,0,0,1,10.45,6.521a1.077,1.077,0,0,0,1.8,0,3.382,3.382,0,0,1,1.165-1.092,3.213,3.213,0,0,1,1.575-.414h.034a3.252,3.252,0,0,1,3.227,3.254A8.373,8.373,0,0,1,16.621,12.722Z" transform="translate(-3.375 -3.938)" fill="#9141ae"/>
</svg>
